<svg width="347" height="46" viewBox="0 0 347 46" fill="none" xmlns="http://www.w3.org/2000/svg">
<rect x="1.5" y="1.5" width="344" height="43" rx="2.5" fill="#FE6565" stroke="#EA393A" stroke-width="3"/>
<rect x="283" y="13" width="54" height="19" rx="9.5" fill="white"/>
<path d="M291.96 21.53H294.56V19.52C293.773 20.4467 292.553 21.21 290.9 21.81L290.39 20.97C291.857 20.57 292.97 20.08 293.73 19.5H290.88V18.62H294.56V17.78H295.48V18.62H299.16V19.5H296.33C297.083 20.1067 298.17 20.59 299.59 20.95L299.18 21.81C297.467 21.2233 296.233 20.4567 295.48 19.51V21.53H298.08V25.29H291.96V21.53ZM297.15 24.45V23.83H292.88V24.45H297.15ZM292.88 23.02H297.15V22.37H292.88V23.02ZM290.68 25.89H299.33V26.76H290.68V25.89ZM301.18 19.56H304.33C304.383 19.4467 304.457 19.2767 304.55 19.05C303.55 19.1033 302.537 19.13 301.51 19.13L301.24 18.35C304.047 18.35 306.42 18.1633 308.36 17.79L308.8 18.54C307.853 18.74 306.747 18.89 305.48 18.99C305.413 19.19 305.343 19.38 305.27 19.56H308.86V20.37H304.89C304.65 20.7767 304.553 20.9433 304.6 20.87H309.44V21.71H304.04C303.987 21.77 303.92 21.8533 303.84 21.96L303.64 22.21H308.49V27.04H307.59V26.66H303.26V27.04H302.36V23.5C301.94 23.8667 301.45 24.2433 300.89 24.63L300.38 23.82C301.347 23.1733 302.177 22.47 302.87 21.71H300.64V20.87H303.55C303.71 20.6433 303.823 20.4767 303.89 20.37H301.18V19.56ZM303.26 24.19V24.66H307.59V24.19H303.26ZM307.59 23.47V22.98H303.26V23.47H307.59ZM303.26 25.38V25.89H307.59V25.38H303.26ZM316.16 20.42H313.93V19.53H315.34C315.067 19.03 314.777 18.5767 314.47 18.17L315.26 17.79C315.553 18.2033 315.853 18.6867 316.16 19.24L315.59 19.53H317.09C317.39 18.9233 317.643 18.3333 317.85 17.76L318.75 18.07C318.523 18.63 318.283 19.1167 318.03 19.53H319.34V20.42H317.11V21.67H319.04V22.56H317.11V23.86H319.6V24.76H317.11V27.04H316.16V24.76H313.68V23.86H316.16V22.56H314.23V21.67H316.16V20.42ZM311.73 17.9C312.363 18.3733 312.903 18.86 313.35 19.36L312.71 20.01C312.317 19.55 311.77 19.0533 311.07 18.52L311.73 17.9ZM310.38 20.78H312.64V24.85L313.28 24.13L313.52 25.08C312.96 25.7067 312.393 26.2567 311.82 26.73L311.47 25.9C311.637 25.7467 311.72 25.5667 311.72 25.36V21.69H310.38V20.78ZM325.13 24.2V24.73H328.08V24.2H325.13ZM328.08 23.48V22.91H325.13V23.48H328.08ZM325.13 25.45V27.01H324.23V22.15H328.99V25.99C328.99 26.6433 328.667 26.97 328.02 26.97H327.28L327.05 26.14L327.74 26.18C327.967 26.18 328.08 26.05 328.08 25.79V25.45H325.13ZM326.15 17.79H327.09V18.39H329.33V19.15H327.09V19.67H328.99V20.41H327.09V20.91H329.62V21.69H323.57V21.39L323.09 21.51C322.943 20.95 322.757 20.4033 322.53 19.87V26.99H321.61V17.83H322.53V19.71L323.14 19.51C323.353 20.0033 323.527 20.47 323.66 20.91H326.15V20.41H324.22V19.67H326.15V19.15H323.88V18.39H326.15V17.79ZM321.36 19.81C321.34 20.7767 321.217 21.72 320.99 22.64L320.28 22.45C320.493 21.6167 320.617 20.72 320.65 19.76L321.36 19.81Z" fill="#D02222"/>
<path d="M18.875 10.718V20H17.458V12.421C16.886 12.9583 16.1753 13.3483 15.326 13.591V12.187C15.742 12.083 16.184 11.901 16.652 11.641C17.12 11.3463 17.5013 11.0387 17.796 10.718H18.875ZM25.6949 10.536C26.7869 10.536 27.6319 10.9953 28.2299 11.914C28.7759 12.772 29.0489 13.9203 29.0489 15.359C29.0489 16.7977 28.7759 17.946 28.2299 18.804C27.6233 19.7227 26.7783 20.182 25.6949 20.182C24.6116 20.182 23.7666 19.7227 23.1599 18.804C22.6139 17.946 22.3409 16.7977 22.3409 15.359C22.3409 13.903 22.6139 12.7547 23.1599 11.914C23.7579 10.9953 24.6029 10.536 25.6949 10.536ZM25.6949 11.732C24.9323 11.732 24.3949 12.1523 24.0829 12.993C23.8576 13.5477 23.7449 14.3363 23.7449 15.359C23.7449 16.373 23.8576 17.1617 24.0829 17.725C24.3949 18.5657 24.9323 18.986 25.6949 18.986C26.4576 18.986 26.9949 18.5657 27.3069 17.725C27.5323 17.127 27.6449 16.3383 27.6449 15.359C27.6449 14.3623 27.5323 13.5737 27.3069 12.993C26.9949 12.1523 26.4576 11.732 25.6949 11.732ZM33.4898 10.536C34.5818 10.536 35.4268 10.9953 36.0248 11.914C36.5708 12.772 36.8438 13.9203 36.8438 15.359C36.8438 16.7977 36.5708 17.946 36.0248 18.804C35.4182 19.7227 34.5732 20.182 33.4898 20.182C32.4065 20.182 31.5615 19.7227 30.9548 18.804C30.4088 17.946 30.1358 16.7977 30.1358 15.359C30.1358 13.903 30.4088 12.7547 30.9548 11.914C31.5528 10.9953 32.3978 10.536 33.4898 10.536ZM33.4898 11.732C32.7272 11.732 32.1898 12.1523 31.8778 12.993C31.6525 13.5477 31.5398 14.3363 31.5398 15.359C31.5398 16.373 31.6525 17.1617 31.8778 17.725C32.1898 18.5657 32.7272 18.986 33.4898 18.986C34.2525 18.986 34.7898 18.5657 35.1018 17.725C35.3272 17.127 35.4398 16.3383 35.4398 15.359C35.4398 14.3623 35.3272 13.5737 35.1018 12.993C34.7898 12.1523 34.2525 11.732 33.4898 11.732ZM47.1738 14.917C47.8931 14.917 48.4434 15.1727 48.8248 15.684C49.1714 16.1347 49.3448 16.7283 49.3448 17.465C49.3448 18.1843 49.1714 18.778 48.8248 19.246C48.4261 19.7487 47.8758 20 47.1738 20C46.4544 20 45.8954 19.7487 45.4968 19.246C45.1501 18.7867 44.9768 18.193 44.9768 17.465C44.9768 16.711 45.1501 16.1173 45.4968 15.684C45.8781 15.1727 46.4371 14.917 47.1738 14.917ZM45.8868 10.536H46.9528L41.7398 20.182H40.6868L45.8868 10.536ZM40.4918 10.718C41.2111 10.718 41.7614 10.9737 42.1428 11.485C42.4894 11.9357 42.6628 12.5293 42.6628 13.266C42.6628 13.9853 42.4894 14.579 42.1428 15.047C41.7441 15.5497 41.1938 15.801 40.4918 15.801C39.7724 15.801 39.2134 15.5497 38.8148 15.047C38.4681 14.5877 38.2948 13.994 38.2948 13.266C38.2948 12.512 38.4681 11.9183 38.8148 11.485C39.1961 10.9737 39.7551 10.718 40.4918 10.718ZM47.1738 15.814C46.8358 15.814 46.5888 15.983 46.4328 16.321C46.3201 16.581 46.2638 16.9623 46.2638 17.465C46.2638 17.9417 46.3201 18.3187 46.4328 18.596C46.5888 18.934 46.8358 19.103 47.1738 19.103C47.4944 19.103 47.7328 18.9253 47.8888 18.57C48.0014 18.2753 48.0578 17.907 48.0578 17.465C48.0578 16.997 47.9971 16.62 47.8758 16.334C47.7371 15.9873 47.5031 15.814 47.1738 15.814ZM40.4918 11.615C40.1538 11.615 39.9068 11.784 39.7508 12.122C39.6381 12.382 39.5818 12.7633 39.5818 13.266C39.5818 13.7427 39.6381 14.1197 39.7508 14.397C39.9068 14.735 40.1538 14.904 40.4918 14.904C40.8124 14.904 41.0508 14.7263 41.2068 14.371C41.3194 14.0763 41.3758 13.708 41.3758 13.266C41.3758 12.798 41.3151 12.421 41.1938 12.135C41.0551 11.7883 40.8211 11.615 40.4918 11.615ZM50.9208 13.851H52.6758V9.366H53.8588V13.851H55.3148V14.982H53.8588V15.372C54.4308 15.9267 55.0505 16.5897 55.7178 17.361L55.0158 18.414C54.5998 17.6687 54.2141 17.0187 53.8588 16.464V21.339H52.6758V16.789C52.3031 17.7683 51.8048 18.6957 51.1808 19.571L50.6478 18.232C51.5491 17.27 52.2035 16.1867 52.6108 14.982H50.9208V13.851ZM55.5878 10.354C55.5098 11.4373 55.3148 12.4037 55.0028 13.253L54.2098 12.993C54.4438 12.2043 54.5998 11.2857 54.6778 10.237L55.5878 10.354ZM51.8048 10.432C51.9955 11.264 52.1601 12.1697 52.2988 13.149L51.4798 13.357C51.3151 12.3863 51.1288 11.5067 50.9208 10.718L51.8048 10.432ZM58.6298 9.327H59.8128V10.081H62.4258V11.095H59.8128V11.719H62.0488V12.707H59.8128V13.357H62.7248V14.371H55.6788V13.357H58.6298V12.707H56.3158V11.719H58.6298V11.095H55.9388V10.081H58.6298V9.327ZM57.4338 17.66V18.362H60.9308V17.66H57.4338ZM60.9308 16.724V15.983H57.4338V16.724H60.9308ZM57.4338 19.285V21.313H56.2768V14.982H62.1138V20.065C62.1138 20.8623 61.7108 21.261 60.9048 21.261H60.0078L59.7088 20.169L60.5538 20.234C60.8051 20.234 60.9308 20.091 60.9308 19.805V19.285H57.4338ZM66.0658 9.782H73.4498V14.319H66.0658V9.782ZM72.2148 13.149V10.952H67.3008V13.149H72.2148ZM69.1338 15.294V21.144H67.9378V20.52H65.5328V21.144H64.3238V15.294H69.1338ZM65.5328 19.363H67.9378V16.464H65.5328V19.363ZM75.1918 15.294V21.144H73.9568V20.52H71.4478V21.144H70.2388V15.294H75.1918ZM71.4478 19.363H73.9568V16.464H71.4478V19.363ZM80.6388 9.769C80.3355 10.7223 79.9541 11.6237 79.4948 12.473V21.365H78.2468V14.397C77.8915 14.865 77.4885 15.3373 77.0378 15.814L76.6348 14.501C77.9175 12.9843 78.8621 11.2293 79.4688 9.236L80.6388 9.769ZM81.1848 9.873H87.4768V14.189H84.9288V15.333H88.5688V16.529H86.0338C86.7098 17.7163 87.6371 18.7433 88.8158 19.61L88.0098 20.689C86.8051 19.5623 85.8171 18.1757 85.0458 16.529H84.9288V21.339H83.7068V16.529H83.5898C82.7751 18.3057 81.7611 19.6967 80.5478 20.702L79.8458 19.584C80.9551 18.8127 81.8738 17.7943 82.6018 16.529H80.1968V15.333H83.7068V14.189H81.1848V9.873ZM86.2548 13.006V11.056H82.4068V13.006H86.2548ZM97.7468 11.056H94.1978V9.847H101.569V11.056H99.0078V14.397H101.387V15.554H99.0078V19.688H101.829V20.897H93.7948V19.688H95.0168V13.019H96.2258V19.688H97.7468V11.056ZM91.5588 9.444C92.4081 10.1287 93.1015 10.77 93.6388 11.368L92.7938 12.226C92.2998 11.6193 91.6021 10.965 90.7008 10.263L91.5588 9.444ZM89.7778 13.214H92.7548V18.557C92.9975 18.3403 93.3745 17.985 93.8858 17.491L94.2108 18.804C93.4308 19.558 92.5988 20.234 91.7148 20.832L91.2468 19.714C91.4635 19.5233 91.5718 19.3023 91.5718 19.051V14.397H89.7778V13.214Z" fill="white"/>
<path d="M35.35 26.78C36.6167 28.1667 38.0633 29.2567 39.69 30.05L39.17 30.97C38.5767 30.6633 38.02 30.32 37.5 29.94V30.69H32.53V29.9C31.99 30.28 31.41 30.64 30.79 30.98L30.28 30.06C32.04 29.1733 33.4967 28.08 34.65 26.78H35.35ZM37.3 29.79C36.4333 29.1433 35.6667 28.4233 35 27.63C34.3467 28.4233 33.5733 29.1433 32.68 29.79H37.3ZM30.96 31.8H39.06V32.72H34.4C33.9533 33.54 33.4333 34.2633 32.84 34.89C34.2667 34.81 35.6533 34.69 37 34.53C36.72 34.1633 36.39 33.77 36.01 33.35L36.75 32.88C37.65 33.8533 38.3533 34.7133 38.86 35.46L38.07 36.02C37.87 35.7133 37.69 35.4467 37.53 35.22C35.9833 35.46 34.0367 35.65 31.69 35.79L31.43 34.97C31.65 34.91 31.8133 34.8233 31.92 34.71C32.4667 34.0767 32.9267 33.4133 33.3 32.72H30.96V31.8ZM48.35 30.38V34.14H47.38V31.24H42.66V34.3H41.71V30.38H48.35ZM42.21 27.08H47.79V29.77H42.21V27.08ZM46.83 28.91V27.96H43.15V28.91H46.83ZM45.57 31.86C45.43 33.36 45.12 34.36 44.64 34.86C44.1333 35.4867 42.9167 35.89 40.99 36.07L40.62 35.2C42.2333 35.12 43.3 34.82 43.82 34.3C44.2667 33.8133 44.53 32.97 44.61 31.77L45.57 31.86ZM45.81 34.02C47.1167 34.3867 48.29 34.8133 49.33 35.3L48.81 36.09C47.6567 35.5167 46.49 35.0733 45.31 34.76L45.81 34.02ZM53.04 32.3C52.7867 32.4733 52.5933 32.6 52.46 32.68L51.87 31.92V35.96H50.96V29.47H53.04C52.88 29.05 52.7233 28.7067 52.57 28.44H50.54V27.53H54.47C54.3833 27.29 54.2867 27.0667 54.18 26.86L55.23 26.7C55.2833 26.8333 55.38 27.11 55.52 27.53H59.46V28.44H57.36C57.1933 28.8333 57.03 29.1767 56.87 29.47H59.02V34.81C59.02 35.59 58.6933 35.98 58.04 35.98H57.02L56.78 35.12L57.74 35.15C57.9867 35.15 58.11 34.97 58.11 34.61V30.31H51.87V31.88C52.65 31.4533 53.3167 30.9367 53.87 30.33L54.54 30.92C54.12 31.4067 53.65 31.8433 53.13 32.23H56.95V34.87H53.04V32.3ZM56.03 34.03V33.08H53.96V34.03H56.03ZM56.06 30.32C56.86 30.8667 57.5367 31.4133 58.09 31.96L57.38 32.66C56.9467 32.1533 56.2933 31.5767 55.42 30.93L56.06 30.32ZM55.83 29.47C56.0033 29.15 56.1667 28.8067 56.32 28.44H53.61C53.7767 28.8067 53.91 29.15 54.01 29.47H55.83ZM62.16 27.14H67.84V30.63H62.16V27.14ZM66.89 29.73V28.04H63.11V29.73H66.89ZM64.52 31.38V35.88H63.6V35.4H61.75V35.88H60.82V31.38H64.52ZM61.75 34.51H63.6V32.28H61.75V34.51ZM69.18 31.38V35.88H68.23V35.4H66.3V35.88H65.37V31.38H69.18ZM66.3 34.51H68.23V32.28H66.3V34.51ZM76.42 29.78V32.99H72.86V34.62C72.86 34.88 73.0133 35.01 73.32 35.01H77.92C78.1333 34.99 78.2767 34.9033 78.35 34.75C78.4033 34.6367 78.46 34.2767 78.52 33.67L79.42 33.96C79.36 34.5467 79.2833 34.9767 79.19 35.25C79.05 35.6633 78.7267 35.88 78.22 35.9H72.93C72.25 35.9 71.91 35.5967 71.91 34.99V30.08C71.6767 30.36 71.45 30.6033 71.23 30.81L70.57 30.01C71.45 29.21 72.2 28.11 72.82 26.71L73.78 26.93C73.6933 27.13 73.5633 27.4167 73.39 27.79H78.86C78.86 30.37 78.8067 31.99 78.7 32.65C78.6 33.2767 78.1867 33.59 77.46 33.59L76.83 33.55L76.6 32.7C76.9133 32.7333 77.1533 32.75 77.32 32.75C77.5867 32.75 77.74 32.5767 77.78 32.23C77.8333 31.91 77.87 30.7333 77.89 28.7H72.89C72.6233 29.1267 72.3767 29.4867 72.15 29.78H76.42ZM72.86 32.13H75.46V30.64H72.86V32.13ZM85.22 28.15V35.61H84.33V35.02H81.6V35.61H80.71V28.15H82.5V26.76H83.43V28.15H85.22ZM81.6 34.17H82.5V31.93H81.6V34.17ZM83.43 34.17H84.33V31.93H83.43V34.17ZM81.6 31.09H82.5V29.01H81.6V31.09ZM83.43 29.01V31.09H84.33V29.01H83.43ZM85.94 27.26H89.3V27.95C88.9933 29.01 88.67 29.96 88.33 30.8C89.0233 31.7933 89.3767 32.6067 89.39 33.24C89.39 33.8133 89.2633 34.21 89.01 34.43C88.7433 34.6633 88.21 34.78 87.41 34.78L87.14 33.82C87.54 33.8667 87.8267 33.89 88 33.89C88.2133 33.87 88.3533 33.82 88.42 33.74C88.4733 33.66 88.5033 33.4933 88.51 33.24C88.4967 32.62 88.1233 31.8067 87.39 30.8C87.71 30.06 88.02 29.1633 88.32 28.11H86.84V36.04H85.94V27.26Z" fill="white"/>
<path d="M122.12 31.34H126.06V34.56H122.12V31.34ZM125.2 33.74V32.17H122.97V33.74H125.2ZM117.8 28.08H119.25V26.79H120.16V28.08H121.59V28.92H120.16V30.2H121.53V31.06H120.37V32.27H121.58V33.13H120.37V34.67C120.41 34.6767 120.447 34.69 120.48 34.71C121.06 34.91 122.41 35.01 124.53 35.01C125.397 35.01 126.073 34.9933 126.56 34.96L126.4 35.9H124.74C122.193 35.9 120.587 35.7567 119.92 35.47C119.427 35.2433 118.983 34.8633 118.59 34.33C118.47 34.89 118.303 35.4567 118.09 36.03L117.4 35.42C117.807 34.26 118.033 32.9867 118.08 31.6L118.89 31.7C118.87 32.2867 118.833 32.78 118.78 33.18C119 33.56 119.233 33.8633 119.48 34.09V31.06H117.71V30.2H119.25V28.92H117.8V28.08ZM121.86 28.09V27.21H126.21C126.203 28.9833 126.107 30.0467 125.92 30.4C125.727 30.7533 125.403 30.93 124.95 30.93C124.777 30.93 124.523 30.9133 124.19 30.88L123.96 30.05C124.073 30.0633 124.22 30.0767 124.4 30.09L124.75 30.12C124.983 30.1133 125.13 29.9967 125.19 29.77C125.257 29.55 125.293 28.99 125.3 28.09H124.02C123.887 28.7633 123.717 29.3 123.51 29.7C123.237 30.1867 122.823 30.63 122.27 31.03L121.65 30.25C122.117 29.9433 122.47 29.6067 122.71 29.24C122.903 28.92 123.047 28.5367 123.14 28.09H121.86ZM131.11 30.51H133.2V29.8H131.47V27.14H135.89V29.8H134.14V30.51H136.21V33.35H134.14V34.62C134.62 34.5533 134.977 34.5067 135.21 34.48C135.157 34.34 135.053 34.0867 134.9 33.72L135.75 33.49C136.097 34.29 136.37 35.0467 136.57 35.76L135.74 36.08L135.5 35.29C134.053 35.5167 132.58 35.7033 131.08 35.85L130.86 34.94C131.66 34.88 132.44 34.81 133.2 34.73V33.35H131.11V30.51ZM135.35 32.54V31.32H134.14V32.54H135.35ZM133.2 32.54V31.32H131.97V32.54H133.2ZM128.72 30.23L128.55 31.65H130.62C130.62 33.3033 130.567 34.43 130.46 35.03C130.34 35.5967 129.827 35.9067 128.92 35.96C128.747 35.96 128.48 35.9467 128.12 35.92L127.89 35.06C128.25 35.0867 128.523 35.1 128.71 35.1C129.217 35.1 129.51 34.9333 129.59 34.6C129.663 34.2467 129.7 33.5367 129.7 32.47H127.6L127.91 29.38H129.61V28.01H127.69V27.14H130.5V30.23H128.72ZM135.02 29.01V27.92H132.35V29.01H135.02ZM145.64 33.03V36.07H144.71V35.64H139.65V36.07H138.71V33.03H145.64ZM139.65 34.82H144.71V33.83H139.65V34.82ZM138.73 29.7C138.41 30.0467 138.06 30.3867 137.68 30.72L137.38 29.79C138.393 28.8567 139.103 27.8467 139.51 26.76L140.44 26.94C140.36 27.1467 140.247 27.4067 140.1 27.72H142.28C142.14 27.42 141.99 27.14 141.83 26.88L142.81 26.72C142.923 26.96 143.06 27.2933 143.22 27.72H146.04V28.5H143.11V29.06H145.6V29.8H143.11V30.33H145.62V31.07H143.11V31.64H146.22V32.43H138.73V29.7ZM142.17 31.64V31.07H139.63V31.64H142.17ZM142.17 30.33V29.8H139.63V30.33H142.17ZM142.17 29.06V28.5H139.65C139.637 28.5133 139.63 28.5233 139.63 28.53V29.06H142.17ZM149.39 30.49V30.62C149.33 32.8667 148.883 34.6633 148.05 36.01L147.35 35.27C148.037 34.1433 148.403 32.5933 148.45 30.62V27.51C151.057 27.49 153.4 27.2733 155.48 26.86L155.95 27.72C153.983 28.0933 151.797 28.31 149.39 28.37V29.57H156.49V30.49H149.39ZM155.74 31.67V36.03H154.79V35.63H151.1V36.03H150.15V31.67H155.74ZM151.1 34.7H154.79V32.58H151.1V34.7Z" fill="white"/>
<path d="M188.56 28.32H185.16V27.4H192.93V28.32H189.52V34.69H193.36V35.62H184.63V34.69H188.56V28.32ZM203.25 27.22V28.15H196.36V31C196.32 33.08 195.887 34.7567 195.06 36.03L194.34 35.39C195.027 34.3233 195.383 32.86 195.41 31V27.22H203.25ZM204.73 27.63H208.52C208.547 27.4367 208.58 27.1467 208.62 26.76L209.59 26.89L209.5 27.63H213.27V28.52H209.36L209.22 29.19H212.04V34.98H213.47V35.85H204.54V34.98H205.92V29.19H208.24L208.38 28.52H204.73V27.63ZM206.86 34.98H211.1V34.31H206.86V34.98ZM206.86 33.55H211.1V32.88H206.86V33.55ZM206.86 32.13H211.1V31.47H206.86V32.13ZM206.86 30.72H211.1V30.03H206.86V30.72ZM217.39 28.85H218.6V26.83H219.56V28.85H221.13V26.83H222.08V28.85H223.33V29.77H222.08V31.89H223.61V32.8H217.11V31.89H218.6V29.77H217.39V28.85ZM219.56 31.89H221.13V29.77H219.56V31.89ZM221.64 32.99C222.493 33.9567 223.127 34.77 223.54 35.43L222.68 36.02C222.24 35.2733 221.633 34.4233 220.86 33.47L221.64 32.99ZM219.78 33.49C219.253 34.4767 218.643 35.3333 217.95 36.06L217.13 35.45C217.817 34.79 218.41 33.9967 218.91 33.07L219.78 33.49ZM215.53 30.73C215.23 31.09 214.92 31.44 214.6 31.78L214.29 30.77C215.31 29.6167 216.073 28.2633 216.58 26.71L217.48 27.13C217.22 27.89 216.89 28.6233 216.49 29.33V36.03H215.53V30.73Z" fill="white"/>
<path d="M122.902 14.644H120.484V15.333H122.902V14.644ZM122.902 16.204H120.484V16.893H122.902V16.204ZM122.902 17.803H119.301V13.721H127.699V17.803H124.098V18.349H128.414V19.324H124.098V19.896H129.181V20.936H117.819V19.896H122.902V19.324H118.599V18.349H122.902V17.803ZM124.098 16.893H126.516V16.204H124.098V16.893ZM124.098 15.333H126.516V14.644H124.098V15.333ZM120.458 11.173H118.508V10.172H122.759C122.672 9.95533 122.56 9.704 122.421 9.418L123.747 9.21C123.86 9.47867 123.977 9.79933 124.098 10.172H128.492V11.173H126.542L126.139 12.148H129.116V13.188H117.884V12.148H120.822L120.458 11.173ZM122.057 12.148H124.878L125.281 11.173H121.693L122.057 12.148ZM135.902 9.353H137.098V14.436H140.075V13.266H137.904V12.252H140.075V11.121H138.021V10.068H141.219V15.528H137.098V16.295H140.79V17.322C140.253 18.128 139.39 18.8257 138.203 19.415C139.373 19.7617 140.799 20.0693 142.48 20.338L141.791 21.391C139.763 21.027 138.069 20.5807 136.708 20.052C135.157 20.6153 133.306 21.0617 131.157 21.391L130.533 20.273C132.353 20.039 133.913 19.74 135.213 19.376C134.112 18.7867 133.311 18.1237 132.808 17.387H131.872V16.295H135.902V15.528H131.664V10.146C132.929 10.094 134.017 9.89467 134.927 9.548L135.473 10.497C134.84 10.7397 133.948 10.9477 132.795 11.121V12.252H135.174V13.266H132.795V14.436H135.902V9.353ZM134.212 17.387C134.784 17.933 135.612 18.4313 136.695 18.882C137.813 18.44 138.675 17.9417 139.282 17.387H134.212ZM144.664 9.925H154.128V11.134H149.552V11.914C149.526 12.6333 149.474 13.318 149.396 13.968H155.155V15.164H151.229V19.337C151.229 19.7617 151.428 19.974 151.827 19.974H153.296C153.556 19.974 153.751 19.883 153.881 19.701C154.028 19.5103 154.128 18.921 154.18 17.933L155.337 18.31C155.233 19.6707 155.034 20.4853 154.739 20.754C154.47 21.0053 154.067 21.131 153.53 21.131H151.45C150.488 21.131 150.007 20.6197 150.007 19.597V15.164H149.201C148.967 16.2907 148.638 17.257 148.213 18.063C147.407 19.4757 146.107 20.5677 144.313 21.339L143.624 20.234C145.409 19.4193 146.623 18.3837 147.264 17.127C147.55 16.503 147.767 15.8487 147.914 15.164H143.819V13.968H148.135C148.213 13.318 148.265 12.6333 148.291 11.914V11.134H144.664V9.925ZM157.404 9.483H158.587V10.822H160.862V9.509H162.045V10.822H162.76V11.953H162.045V17.179H162.903V18.323H156.598V17.179H157.404V11.953H156.741V10.822H157.404V9.483ZM158.587 17.179H160.862V16.139H158.587V17.179ZM160.862 11.953H158.587V12.993H160.862V11.953ZM158.587 15.099H160.862V14.046H158.587V15.099ZM161.031 18.492C161.568 19.0987 161.98 19.6273 162.266 20.078L161.304 20.754C161.027 20.286 160.628 19.7227 160.108 19.064L161.031 18.492ZM159.211 18.986C158.734 19.922 158.175 20.741 157.534 21.443L156.507 20.702C157.14 20.0953 157.694 19.3543 158.171 18.479L159.211 18.986ZM164.866 9.6C164.771 10.2933 164.688 10.8307 164.619 11.212H168.142V11.979C167.977 12.993 167.739 14.1023 167.427 15.307L166.27 14.982C166.513 14.28 166.729 13.4003 166.92 12.343H164.372C164.086 13.435 163.713 14.319 163.254 14.995L162.279 14.306C163.007 13.136 163.475 11.5023 163.683 9.405L164.866 9.6ZM165.88 13.279C165.88 13.9983 165.854 14.657 165.802 15.255C166.374 17.413 167.314 19.1247 168.623 20.39L167.817 21.326C166.846 20.26 166.071 18.973 165.49 17.465L165.464 17.595C165.126 19.1117 164.337 20.364 163.098 21.352L162.305 20.39C163.328 19.5493 164.004 18.5137 164.333 17.283C164.584 16.2257 164.71 14.891 164.71 13.279H165.88Z" fill="white"/>
<line x1="110.25" y1="9" x2="110.25" y2="21" stroke="white" stroke-width="0.5"/>
<path d="M20.494 30.346V32.593H18.002V33.734C18.002 33.916 18.1093 34.007 18.324 34.007H21.544C21.6933 33.993 21.7937 33.9323 21.845 33.825C21.8823 33.7457 21.922 33.4937 21.964 33.069L22.594 33.272C22.552 33.6827 22.4983 33.9837 22.433 34.175C22.335 34.4643 22.1087 34.616 21.754 34.63H18.051C17.575 34.63 17.337 34.4177 17.337 33.993V30.556C17.1737 30.752 17.015 30.9223 16.861 31.067L16.399 30.507C17.015 29.947 17.54 29.177 17.974 28.197L18.646 28.351C18.5853 28.491 18.4943 28.6917 18.373 28.953H22.202C22.202 30.759 22.1647 31.893 22.09 32.355C22.02 32.7937 21.7307 33.013 21.222 33.013L20.781 32.985L20.62 32.39C20.8393 32.4133 21.0073 32.425 21.124 32.425C21.3107 32.425 21.418 32.3037 21.446 32.061C21.4833 31.837 21.509 31.0133 21.523 29.59H18.023C17.8363 29.8887 17.6637 30.1407 17.505 30.346H20.494ZM18.002 31.991H19.822V30.948H18.002V31.991Z" fill="white"/>
<path d="M19.75 37.6936L19.621 37.6443C15.479 36.0628 15 33.9957 15 32.5784V27.1653L15.3698 27.1779C18.2489 27.2747 19.4749 25.9911 19.4865 25.9786L19.7504 25.6936L20.0139 25.9786C20.0236 25.9889 21.1855 27.183 23.8231 27.183C23.8231 27.183 23.8231 27.183 23.8235 27.183C23.9237 27.183 24.0262 27.1815 24.1302 27.1779L24.5 27.1653V32.5784C24.5 33.9957 24.021 36.0628 19.879 37.6443L19.75 37.6936ZM15.715 27.8892V32.5784C15.715 33.3406 15.7153 35.3529 19.75 36.9358C23.7851 35.3529 23.7851 33.3406 23.7851 32.5784V27.8892C21.5508 27.8808 20.2652 27.0954 19.75 26.6896C19.2345 27.095 17.9489 27.88 15.715 27.8892Z" fill="white"/>
<path d="M104.001 31.032C103.791 31.3073 103.597 31.5453 103.42 31.746L103.203 31.032C103.847 30.22 104.328 29.2727 104.645 28.19L105.268 28.484C105.1 29.0207 104.895 29.5223 104.652 29.989V34.735H104.001V31.032ZM105.142 29.107H107.193C107.104 28.869 106.999 28.638 106.878 28.414L107.515 28.239C107.664 28.5563 107.776 28.8457 107.851 29.107H109.741V29.73H105.142V29.107ZM105.779 30.157H109.146V30.752H105.779V30.157ZM105.779 31.144H109.146V31.746H105.779V31.144ZM109.293 32.187V34.721H108.649V34.357H106.269V34.721H105.625V32.187H109.293ZM106.269 33.734H108.649V32.803H106.269V33.734Z" fill="white"/>
<path d="M106.75 38L106.621 37.9507C102.479 36.3692 102 34.3021 102 32.8848V27.4717L102.37 27.4843C105.249 27.5811 106.475 26.2975 106.486 26.285L106.75 26L107.014 26.285C107.024 26.2953 108.185 27.4894 110.823 27.4894C110.823 27.4894 110.823 27.4894 110.823 27.4894C110.924 27.4894 111.026 27.4879 111.13 27.4843L111.5 27.4717V32.8848C111.5 34.3021 111.021 36.3692 106.879 37.9507L106.75 38ZM102.715 28.1956V32.8848C102.715 33.647 102.715 35.6593 106.75 37.2422C110.785 35.6593 110.785 33.647 110.785 32.8848V28.1956C108.551 28.1872 107.265 27.4018 106.75 26.996C106.234 27.4014 104.949 28.1864 102.715 28.1956Z" fill="white"/>
<path d="M170.711 28.841H173.364C173.383 28.7057 173.406 28.5027 173.434 28.232L174.113 28.323L174.05 28.841H176.689V29.464H173.952L173.854 29.933H175.828V33.986H176.829V34.595H170.578V33.986H171.544V29.933H173.168L173.266 29.464H170.711V28.841ZM172.202 33.986H175.17V33.517H172.202V33.986ZM172.202 32.985H175.17V32.516H172.202V32.985ZM172.202 31.991H175.17V31.529H172.202V31.991ZM172.202 31.004H175.17V30.521H172.202V31.004Z" fill="white"/>
<path d="M173.75 38L173.621 37.9507C169.479 36.3692 169 34.3021 169 32.8848V27.4717L169.37 27.4843C172.249 27.5811 173.475 26.2975 173.486 26.285L173.75 26L174.014 26.285C174.024 26.2953 175.185 27.4894 177.823 27.4894C177.823 27.4894 177.823 27.4894 177.823 27.4894C177.924 27.4894 178.026 27.4879 178.13 27.4843L178.5 27.4717V32.8848C178.5 34.3021 178.021 36.3692 173.879 37.9507L173.75 38ZM169.715 28.1956V32.8848C169.715 33.647 169.715 35.6593 173.75 37.2422C177.785 35.6593 177.785 33.647 177.785 32.8848V28.1956C175.551 28.1872 174.265 27.4018 173.75 26.996C173.234 27.4014 171.949 28.1864 169.715 28.1956Z" fill="white"/>
</svg>
